<?xml version="1.0" encoding="utf-8"?>
<!-- Generator: Adobe Illustrator 22.1.0, SVG Export Plug-In . SVG Version: 6.00 Build 0)  -->
<svg version="1.1" id="Layer_1" xmlns="http://www.w3.org/2000/svg" xmlns:xlink="http://www.w3.org/1999/xlink" x="0px" y="0px"
	 viewBox="0 0 1490 478" style="enable-background:new 0 0 1490 478;" xml:space="preserve">
<style type="text/css">
	.st0{fill:#3EB7BA;}
	.st1{fill:#2D2D2D;}
</style>
<title>Artboard 3</title>
<g>
	<circle class="st0" cx="414.1" cy="436.4" r="24.5"/>
	<g>
		<polygon class="st0" points="123.5,226.3 208.8,77.2 380.9,77.2 295.5,226.3 		"/>
		<polygon class="st0" points="123.5,253.9 208,396.8 380.9,396.8 296.3,253.9 		"/>
		<polygon class="st0" points="424,134.2 400.8,94.2 317.9,238.1 400.8,384.7 422.6,346.2 483.8,238.1 		"/>
		<circle class="st0" cx="67.8" cy="239.4" r="24.5"/>
		<circle class="st0" cx="420.5" cy="46.3" r="24.5"/>
		<path class="st0" d="M298.2,453.2c-100.4,0-187.7-69.3-210.3-167.3c-0.4-1.2,0.4-2.5,1.5-2.9s2.5,0.4,2.9,1.5v0.2
			c22.2,96.4,106.8,163.6,205.9,163.6c21.4,0,42.9-3.3,63.3-9.7c1.2-0.4,2.5,0.2,2.9,1.4c0,0,0,0,0,0.2c0.4,1.2-0.4,2.5-1.5,2.9
			C341.9,449.9,320.1,453.4,298.2,453.2z"/>
		<path class="st0" d="M438.8,400.5c-0.6,0-1.4-0.4-1.7-0.8c-0.8-1-0.8-2.3,0.2-3.3c87.9-77.1,96.6-210.5,19.5-298.4
			c-4.2-4.8-8.7-9.5-13.5-14.1c-1-1-1-2.3-0.2-3.3c1-1,2.3-1,3.3-0.2l0,0c86.5,81.9,90.4,218.4,8.5,305.2
			c-4.6,4.8-9.5,9.7-14.7,14.1C440,400.3,439.4,400.5,438.8,400.5z"/>
		<path class="st0" d="M90.2,191.5c-0.2,0-0.4,0-0.6-0.2c-1.2-0.2-1.9-1.5-1.7-2.7c11-47.1,37.5-89,74.9-119.6
			c18.7-15.1,39.8-26.8,62.4-35c48.3-17.2,101-16.8,148.9,1.2c1.2,0.4,1.9,1.7,1.5,2.9c-0.4,1.2-1.7,1.9-2.9,1.5h-0.2
			c-23.8-8.9-49.1-13.5-74.4-13.5c-98.9,0-183.7,67.2-205.9,163.6C92.2,190.8,91.2,191.5,90.2,191.5z"/>
		<path class="st1" d="M542.9,135.3h51.6l63.2,158.6l63.2-158.6h51.6L657.7,399.7L542.9,135.3z"/>
		<path class="st1" d="M657.7,405.7L539.3,132.8h56.8l61.6,154.3l61.6-154.3h56.8L657.7,405.7z M546.6,137.6l111.1,256.1
			l111.1-256.1h-46.4l-64.9,162.4l-64.7-162.4L546.6,137.6L546.6,137.6z"/>
		<path class="st1" d="M852.2,376.9h-0.6c-10.2,13.7-28.8,22.4-49.2,22.4c-49.2,0-77.8-40.4-77.8-79c0-36.9,30.7-79,79.4-79
			c22.4,0,39.4,9.7,47.7,22.4h0.6v-18.3h32.3v150.1h-32.3V376.9z M806.4,368.8c25.5,0,47.1-21.8,47.1-48.7
			c0-26.8-21.8-48.7-47.1-48.7c-26.1,0-47.7,21.8-47.7,48.7C758.7,347,780.3,368.8,806.4,368.8z"/>
		<path class="st1" d="M802.3,401.7c-29.9,0-48.7-13.9-59.1-25.9c-13.5-15.5-21.1-35.2-21.1-55.6c0-39.2,32.8-81.5,81.7-81.5
			c18.9,0,35.7,6.8,46,18.5v-14.3h37.1v154.7H850v-14.9C838.6,394.5,820.9,401.7,802.3,401.7z M803.9,243.7
			c-46,0-76.9,39.6-76.9,76.7c0,37.7,28.2,76.7,75.3,76.7c19.3,0,37.5-8.1,47.3-21.2l0.8-1h4.2v18.3h27.6V247.9h-27.6v18.3h-4.4
			l-0.8-1C840.8,251.6,823.8,243.7,803.9,243.7L803.9,243.7z M806.4,371.3c-27.6,0-50-22.8-50-51c0-28.2,22.4-51,50-51
			c13.1,0,25.7,5.4,34.8,14.9c19.5,20.1,19.5,52.1,0,72.2C832.1,365.7,819.5,371.1,806.4,371.3L806.4,371.3z M806.4,274
			c-24.9,0-45.4,20.9-45.4,46.4s20.3,46.4,45.4,46.4c24.3,0,44.6-21.2,44.6-46.4S830.5,274,806.4,274z"/>
		<path class="st1" d="M917.4,332.7h-21.1v-30.3h21.1V200.8h32.3v101.6h16.4l39.4-57h39l-50.8,70.7l53.3,79.4h-38.2l-39.6-62.4
			h-19.5v62.2h-32.3L917.4,332.7L917.4,332.7z"/>
		<path class="st1" d="M1051.3,397.6h-43.8L967.6,335h-15.8v62.6h-36.9V335h-21.1v-35.2h21.1V198.3h36.9v101.6h12.9l39.2-57.2h45.2
			l-52.5,73L1051.3,397.6z M1010.1,393h32.3l-51.8-77.1l49.1-68.2h-33l-39.4,57h-20.1V203.1h-27.4v101.6h-21.1v25.7h21.1V393h27.6
			v-62.6h23.2L1010.1,393z"/>
		<path class="st1" d="M1168.3,376.9h-0.6c-10.2,13.7-28.8,22.4-49.2,22.4c-49.2,0-77.8-40.4-77.8-79c0-36.9,30.7-79,79.4-79
			c22.4,0,39.4,9.7,47.7,22.4h0.6v-18.3h32.3v150.1h-32.3V376.9z M1122.5,368.8c25.5,0,47.1-21.8,47.1-48.7
			c0-26.8-21.8-48.7-47.1-48.7c-26.1,0-47.7,21.8-47.7,48.7C1074.8,347,1096.7,368.8,1122.5,368.8z"/>
		<path class="st1" d="M1118.5,401.7c-29.9,0-48.7-13.9-59.1-25.9c-13.5-15.5-21.1-35.2-21.1-55.6c0-39.2,32.8-81.5,81.7-81.5
			c18.9,0,35.7,6.8,46,18.5v-14.3h36.9v154.7H1166v-14.9C1154.8,394.5,1137.2,401.7,1118.5,401.7z M1120.2,243.7
			c-46,0-76.9,39.6-76.9,76.7c0,37.7,28.2,76.7,75.3,76.7c19.3,0,37.5-8.1,47.3-21.2l0.8-1h4.2v18.3h27.6V247.9h-27.8v18.3h-4.2
			l-0.8-1C1157.1,251.6,1139.9,243.7,1120.2,243.7L1120.2,243.7z M1122.5,371.3c-27.6,0-50-22.8-50-51c0-28.2,22.4-51,50-51
			c13.1,0,25.7,5.4,34.8,14.9c19.5,20.1,19.5,52.1,0,72.2C1148.2,365.7,1135.7,371.1,1122.5,371.3L1122.5,371.3z M1122.5,274
			c-24.9,0-45.4,20.9-45.4,46.4s20.3,46.4,45.4,46.4c24.3,0,44.6-21.2,44.6-46.4C1167.4,295.2,1146.9,274,1122.5,274z"/>
		<path class="st0" d="M1374,235.6h-62.4c-10.2,0-18.5,8.3-18.5,18.5v60.3c0,10.2,8.3,18.5,18.5,18.5h62.4
			c10.2,0,18.5-8.3,18.5-18.5v-60.3C1392.4,243.9,1384.2,235.6,1374,235.6z M1353.7,314.4c0.2,0.6,0.4,1.2,0.4,1.9
			c0.4,2.1,0,2.7-2.3,2.7h-21.1c-2.5,0-2.7-0.4-2.3-2.9c2.3-11.6,4.6-23,7-34.6c-8.5-3.1-12.9-12.7-9.8-21.2
			c3.1-8.5,12.7-12.9,21.2-9.8c8.5,3.1,12.9,12.7,9.8,21.2c-1.7,4.6-5.2,8.1-9.8,9.8C1349.5,292.5,1351.6,303.4,1353.7,314.4z"/>
		<circle class="st0" cx="1260.6" cy="198.3" r="29.4"/>
		<path class="st1" d="M1235.1,244.4c-1.5,0-2.7,1.2-2.7,2.7l0,0v90.4c0,32.8,26.7,59.3,59.3,59.3h102c32.8,0,59.3-26.7,59.3-59.3
			v-102c0-32.8-26.7-59.3-59.3-59.3h-80.5c-1.5,0-2.7,1.2-2.7,2.7l0,0v5c0,1.5,1.2,2.7,2.7,2.7l0,0h80.5c27,0,48.9,21.8,48.9,48.9
			v101.8c0,27-21.8,48.9-48.9,48.9h-102c-27,0-48.9-21.8-48.9-48.9V247c0-1.5-1.2-2.7-2.7-2.7l0,0L1235.1,244.4L1235.1,244.4z"/>
		<path class="st1" d="M1426.2,246.8c0-25.1-20.5-45.6-45.6-45.6H1313c-1.5,0-2.7,1.2-2.7,2.7l0,0v5c0,1.5,1.2,2.7,2.7,2.7l0,0h67.6
			c19.3,0,35,15.6,35,35v75.9c0,19.3-15.6,35-35,35h-75.9c-19.3,0-35-15.6-35-35v-75.3c0-1.5-1.2-2.7-2.7-2.7l0,0h-5
			c-1.5,0-2.7,1.2-2.7,2.7l0,0v75.3c0,25.1,20.5,45.6,45.6,45.6h75.9c25.1,0,45.6-20.5,45.6-45.6L1426.2,246.8L1426.2,246.8z"/>
	</g>
</g>
</svg>
