<?xml version="1.0" encoding="utf-8"?>
<!-- Generator: Adobe Illustrator 22.1.0, SVG Export Plug-In . SVG Version: 6.00 Build 0)  -->
<svg version="1.1" id="Layer_1" xmlns="http://www.w3.org/2000/svg" xmlns:xlink="http://www.w3.org/1999/xlink" x="0px" y="0px"
	 viewBox="0 0 1490 478" style="enable-background:new 0 0 1490 478;" xml:space="preserve">
<style type="text/css">
	.st0{fill:#3EB7BA;}
	.st1{fill:#FFFFFF;}
</style>
<title>Artboard 4</title>
<circle class="st0" cx="416.4" cy="428.9" r="24.2"/>
<polygon class="st0" points="129.4,221.5 213.7,74.3 383.6,74.3 299.3,221.5 "/>
<polygon class="st0" points="129.4,248.8 212.9,389.8 383.6,389.8 300.1,248.8 "/>
<polygon class="st0" points="426.1,130.5 403.2,91.1 321.4,233.1 403.2,377.8 424.8,339.9 485.2,233.1 "/>
<circle class="st0" cx="74.5" cy="234.5" r="24.2"/>
<circle class="st0" cx="422.7" cy="43.8" r="24.2"/>
<path class="st0" d="M302,445.5c-99.1,0-185.3-68.5-207.6-165.1c-0.4-1.1,0.4-2.5,1.5-2.9c1.1-0.4,2.5,0.4,2.9,1.5v0.2
	c21.9,95.1,105.4,161.5,203.3,161.5c21.2,0,42.3-3.2,62.5-9.5c1.1-0.4,2.5,0.2,2.9,1.3c0,0,0,0,0,0.2c0.4,1.1-0.4,2.5-1.5,2.9
	C345.1,442.3,323.5,445.7,302,445.5z"/>
<path class="st0" d="M440.8,393.5c-0.6,0-1.3-0.4-1.7-0.8c-0.8-1-0.8-2.3,0.2-3.2c86.8-76.1,95.3-207.8,19.3-294.6
	c-4.2-4.8-8.6-9.3-13.3-13.9c-1-1-1-2.3-0.2-3.2c1-1,2.3-1,3.2-0.2l0,0c85.4,80.8,89.2,215.6,8.4,301.3c-4.6,4.8-9.3,9.5-14.5,13.9
	C441.9,393.3,441.4,393.5,440.8,393.5z"/>
<path class="st0" d="M96.6,187.2c-0.2,0-0.4,0-0.6-0.2c-1.1-0.2-1.9-1.5-1.7-2.7c10.9-46.5,37-87.9,74-118
	c18.5-14.9,39.3-26.5,61.6-34.5c47.7-17,99.7-16.6,147,1.1c1.1,0.4,1.9,1.7,1.5,2.9c-0.4,1.1-1.7,1.9-2.9,1.5h-0.2
	C351.9,28.5,327,24,302,24c-97.6,0-181.3,66.4-203.3,161.5C98.5,186.4,97.6,187.2,96.6,187.2z"/>
<path class="st1" d="M543.6,131.7h50.9l62.3,156.5l62.3-156.5h50.9l-113.3,261L543.6,131.7z"/>
<path class="st1" d="M656.8,398.6L539.9,129.2H596l60.8,152.3l60.8-152.3h56.1L656.8,398.6z M547.2,134l109.6,252.8L766.5,134h-45.8
	l-64.1,160.4L592.8,134L547.2,134L547.2,134z"/>
<path class="st1" d="M848.8,370.2h-0.6c-10.1,13.5-28.4,22.1-48.6,22.1c-48.6,0-76.8-39.9-76.8-78c0-36.4,30.3-78,78.4-78
	c22.1,0,38.9,9.5,47.1,22.1h0.6v-18.1h31.8v148.2h-31.8V370.2z M803.6,362.2c25.2,0,46.5-21.5,46.5-48s-21.5-48-46.5-48
	c-25.7,0-47.1,21.5-47.1,48S777.9,362.2,803.6,362.2z"/>
<path class="st1" d="M799.6,394.6c-29.6,0-48-13.7-58.3-25.5c-13.3-15.3-20.8-34.7-20.8-54.9c0-38.7,32.4-80.5,80.7-80.5
	c18.7,0,35.3,6.7,45.4,18.3v-14.1h36.6v152.7h-36.4v-14.7C835.5,387.6,817.9,394.6,799.6,394.6z M801.2,238.6
	c-45.4,0-75.9,39.1-75.9,75.7c0,37.2,27.8,75.7,74.4,75.7c19.1,0,37-8,46.7-21l0.8-1h4.2v18.1h27.3V242.8h-27.3V261h-4.4l-0.8-1
	C837.6,246.5,820.8,238.6,801.2,238.6L801.2,238.6z M803.6,364.7c-27.3,0-49.4-22.5-49.4-50.3c0-27.8,22.1-50.3,49.4-50.3
	c13,0,25.4,5.3,34.3,14.7c19.3,19.8,19.3,51.5,0,71.3C829,359.1,816.6,364.5,803.6,364.7L803.6,364.7z M803.6,268.6
	c-24.6,0-44.8,20.6-44.8,45.8s20,45.8,44.8,45.8c24,0,44-21,44-45.8C847.7,289.6,827.5,268.6,803.6,268.6z"/>
<path class="st1" d="M913.3,326.5h-20.8v-29.9h20.8V196.3h31.8v100.3h16.2l38.9-56.2h38.5l-50.1,69.8l52.6,78.4h-37.8l-39.1-61.6
	h-19.3v61.4h-31.8L913.3,326.5L913.3,326.5z"/>
<path class="st1" d="M1045.4,390.6h-43.3l-39.3-61.8h-15.6v61.8h-36.4v-61.8H890v-34.7h20.8V193.8h36.4v100.3H960l38.7-56.4h44.6
	l-51.9,72.1L1045.4,390.6z M1004.8,386h31.8L985.5,310l48.4-67.3h-32.6l-38.9,56.2h-19.8V198.6h-27.1v100.3h-20.8v25.4h20.8V386
	h27.3v-61.8h22.9L1004.8,386z"/>
<path class="st1" d="M1161,370.2h-0.6c-10.1,13.5-28.4,22.1-48.6,22.1c-48.6,0-76.8-39.9-76.8-78c0-36.4,30.3-78,78.4-78
	c22.1,0,38.9,9.5,47.1,22.1h0.6v-18.1h31.8v148.2H1161V370.2z M1115.8,362.2c25.2,0,46.5-21.5,46.5-48s-21.5-48-46.5-48
	c-25.7,0-47.1,21.5-47.1,48S1090.2,362.2,1115.8,362.2z"/>
<path class="st1" d="M1111.8,394.6c-29.6,0-48-13.7-58.3-25.5c-13.3-15.3-20.8-34.7-20.8-54.9c0-38.7,32.4-80.5,80.7-80.5
	c18.7,0,35.3,6.7,45.4,18.3v-14.1h36.4v152.7h-36.4v-14.7C1147.6,387.6,1130.3,394.6,1111.8,394.6z M1113.5,238.6
	c-45.4,0-75.9,39.1-75.9,75.7c0,37.2,27.8,75.7,74.4,75.7c19.1,0,37-8,46.7-21l0.8-1h4.2v18.1h27.3V242.8h-27.5V261h-4.2l-0.8-1
	C1149.9,246.5,1132.9,238.6,1113.5,238.6L1113.5,238.6z M1115.8,364.7c-27.3,0-49.4-22.5-49.4-50.3c0-27.8,22.1-50.3,49.4-50.3
	c13,0,25.4,5.3,34.3,14.7c19.3,19.8,19.3,51.5,0,71.3C1141.1,359.1,1128.7,364.5,1115.8,364.7L1115.8,364.7z M1115.8,268.6
	c-24.6,0-44.8,20.6-44.8,45.8s20,45.8,44.8,45.8c24,0,44-21,44-45.8C1160,289.6,1139.8,268.6,1115.8,268.6z"/>
<path class="st0" d="M1364,230.6h-61.6c-10.1,0-18.3,8.2-18.3,18.3v59.5c0,10.1,8.2,18.3,18.3,18.3h61.6c10.1,0,18.3-8.2,18.3-18.3
	v-59.5C1382.1,238.8,1374.1,230.6,1364,230.6z M1344,308.4c0.2,0.6,0.4,1.1,0.4,1.9c0.4,2.1,0,2.7-2.3,2.7h-20.8
	c-2.5,0-2.7-0.4-2.3-2.9c2.3-11.4,4.6-22.7,6.9-34.1c-8.4-3.1-12.8-12.6-9.7-21c3.1-8.4,12.6-12.8,21-9.7s12.8,12.6,9.7,21
	c-1.7,4.6-5.1,8-9.7,9.7C1339.8,286.9,1341.9,297.6,1344,308.4z"/>
<circle class="st0" cx="1252.1" cy="193.8" r="29"/>
<path class="st1" d="M1226.9,239.4c-1.5,0-2.7,1.1-2.7,2.7l0,0v89.2c0,32.4,26.3,58.5,58.5,58.5h100.7c32.4,0,58.5-26.3,58.5-58.5
	V230.6c0-32.4-26.3-58.5-58.5-58.5H1304c-1.5,0-2.7,1.1-2.7,2.7l0,0v5c0,1.5,1.1,2.7,2.7,2.7l0,0h79.5c26.7,0,48.2,21.5,48.2,48.2
	v100.5c0,26.7-21.5,48.2-48.2,48.2h-100.7c-26.7,0-48.2-21.5-48.2-48.2v-89.2c0-1.5-1.1-2.7-2.7-2.7l0,0L1226.9,239.4L1226.9,239.4z
	"/>
<path class="st1" d="M1415.5,241.7c0-24.8-20.2-45-45-45h-66.7c-1.5,0-2.7,1.1-2.7,2.7l0,0v5c0,1.5,1.1,2.7,2.7,2.7l0,0h66.7
	c19.1,0,34.5,15.4,34.5,34.5v74.9c0,19.1-15.4,34.5-34.5,34.5h-74.9c-19.1,0-34.5-15.4-34.5-34.5v-74.4c0-1.5-1.1-2.7-2.7-2.7l0,0
	h-5c-1.5,0-2.7,1.1-2.7,2.7l0,0v74.4c0,24.8,20.2,45,45,45h74.9c24.8,0,45-20.2,45-45L1415.5,241.7L1415.5,241.7z"/>
</svg>
