<svg id="Layer_1" data-name="Layer 1" xmlns="http://www.w3.org/2000/svg" viewBox="0 0 1490 478"><defs><style>.cls-1{fill:#28d16c;}.cls-2{fill:#18ba60;}.cls-3,.cls-6{fill:#10a04a;}.cls-4{fill:#20c462;}.cls-5{fill:#2d2d2d;}.cls-6{stroke:#10a04a;stroke-miterlimit:10;stroke-width:9px;}</style></defs><title>Artboard 3</title><polygon class="cls-1" points="119.8 225.7 203.5 79.6 372.2 79.6 288.5 225.7 119.8 225.7"/><polygon class="cls-2" points="119.8 252.8 202.7 392.9 372.2 392.9 289.3 252.8 119.8 252.8"/><polygon class="cls-3" points="414.4 135.4 391.7 96.2 310.4 237.3 391.7 380.9 413 343.3 473.1 237.3 414.4 135.4"/><circle class="cls-4" cx="404.7" cy="431.7" r="24.1"/><circle class="cls-4" cx="65.33" cy="238.54" r="24.1" transform="translate(-177.03 287.86) rotate(-86.19)"/><circle class="cls-4" cx="410.9" cy="49.4" r="24.1"/><path class="cls-4" d="M291.1,448.2A211.48,211.48,0,0,1,85,284.3a2.26,2.26,0,1,1,4.4-1c21.7,94.4,104.7,160.4,201.7,160.4a206.79,206.79,0,0,0,62-9.5,2.18,2.18,0,0,1,2.8,1.5,2.25,2.25,0,0,1-1.5,2.8A209.09,209.09,0,0,1,291.1,448.2Z"/><path class="cls-4" d="M428.9,396.4a2.29,2.29,0,0,1-1.7-.8,2.33,2.33,0,0,1,.2-3.2,207.18,207.18,0,0,0,6-306.1,2.26,2.26,0,0,1,3.1-3.3,211.5,211.5,0,0,1-6.1,312.8A2,2,0,0,1,428.9,396.4Z"/><path class="cls-4" d="M87.2,191.6a.9.9,0,0,1-.5-.1,2.27,2.27,0,0,1-1.7-2.7A213,213,0,0,1,158.5,71.7a209.24,209.24,0,0,1,61.1-34.3,212.33,212.33,0,0,1,146,1.1,2.25,2.25,0,1,1-1.6,4.2,205.42,205.42,0,0,0-72.9-13.2c-97,0-180,65.9-201.7,160.3A2.24,2.24,0,0,1,87.2,191.6Z"/><path class="cls-5" d="M530.9,136.5h50.5l61.9,155.3,61.9-155.3h50.5L643.3,395.7Z"/><path class="cls-5" d="M643.3,401.5,527.4,134.2H583l60.3,151.3,60.3-151.3h55.6ZM534.5,138.8l108.9,251,108.9-251H706.9L643.3,298,579.9,138.8Z"/><path class="cls-5" d="M834,373.4h-.6c-10,13.4-28.2,21.9-48.3,21.9-48.3,0-76.2-39.5-76.2-77.4,0-36.1,30.1-77.4,77.7-77.4,21.9,0,38.6,9.4,46.8,21.9h.6V244.5h31.6v147H834Zm-44.9-7.9c24.9,0,46.2-21.3,46.2-47.7s-21.3-47.7-46.2-47.7c-25.5,0-46.8,21.3-46.8,47.7S763.6,365.5,789.1,365.5Z"/><path class="cls-5" d="M785.1,397.6c-29.3,0-47.7-13.7-57.9-25.3a82.94,82.94,0,0,1-20.6-54.5c0-38.5,32.2-79.8,80.1-79.8,18.6,0,35,6.7,45.1,18.1V242H868V393.6H831.8V379C820.7,390.6,803.4,397.6,785.1,397.6Zm1.5-154.9c-45.1,0-75.4,38.8-75.4,75.1,0,36.9,27.6,75.1,73.9,75.1,19,0,36.7-8,46.4-20.9l.7-.9h4.1V389h27V246.7h-27v17.9h-4.2l-.7-1C822.9,250.5,806.1,242.7,786.6,242.7Zm2.5,125.1c-27.1,0-49.1-22.4-49.1-50s22-50,49.1-50a47.83,47.83,0,0,1,34.1,14.6,50.71,50.71,0,0,1,0,70.8A47.83,47.83,0,0,1,789.1,367.8Zm0-95.3c-24.5,0-44.5,20.4-44.5,45.4s19.9,45.4,44.5,45.4c23.8,0,43.8-20.8,43.8-45.4S812.8,272.5,789.1,272.5Z"/><path class="cls-5" d="M897.9,330H877.2V300.2h20.7V200.6h31.6v99.6h16.1l38.6-55.9h38.3l-49.8,69.2,52.2,77.7H987.5L948.7,330H929.6v61.3H898V330Z"/><path class="cls-5" d="M1029.2,393.7h-43l-38.9-61.3H931.8v61.3H895.6V332.4H875V298h20.7V198.4h36.2V298h12.6L983,242h44l-51.5,71.6ZM988.8,389h31.7l-50.7-75.5,48.1-66.9H985.4l-38.6,55.9H927.2V202.9h-27v99.6H879.5v25.1h20.7V389h27V327.7h22.7Z"/><path class="cls-5" d="M1143.9,373.4h-.6c-10,13.4-28.2,21.9-48.3,21.9-48.3,0-76.2-39.5-76.2-77.4,0-36.1,30.1-77.4,77.7-77.4,21.9,0,38.6,9.4,46.8,21.9h.6V244.5h31.6v147h-31.6Zm-44.9-7.9c24.9,0,46.2-21.3,46.2-47.7s-21.3-47.7-46.2-47.7c-25.5,0-46.8,21.3-46.8,47.7S1073.5,365.5,1099,365.5Z"/><path class="cls-5" d="M1095,397.6c-29.3,0-47.7-13.7-57.9-25.3a82.94,82.94,0,0,1-20.6-54.5c0-38.5,32.2-79.8,80.1-79.8,18.6,0,35,6.7,45.1,18.1V242h36.2V393.6h-36.2V379C1130.6,390.6,1113.3,397.6,1095,397.6Zm1.6-154.9c-45.1,0-75.4,38.8-75.4,75.1,0,36.9,27.6,75.1,73.9,75.1,19,0,36.7-8,46.4-20.9l.7-.9h4.1V389h27V246.7h-27v17.9h-4.2l-.7-1C1132.8,250.5,1116,242.7,1096.6,242.7Zm2.4,125.1c-27.1,0-49.1-22.4-49.1-50s22-50,49.1-50a47.83,47.83,0,0,1,34.1,14.6,50.71,50.71,0,0,1,0,70.8A47.83,47.83,0,0,1,1099,367.8Zm0-95.3c-24.5,0-44.5,20.4-44.5,45.4s19.9,45.4,44.5,45.4c23.8,0,43.8-20.8,43.8-45.4S1122.8,272.5,1099,272.5Z"/><path class="cls-3" d="M1345.3,234.8h-61.1A18.27,18.27,0,0,0,1266,253v59a18.27,18.27,0,0,0,18.2,18.2h61.1a18.27,18.27,0,0,0,18.2-18.2V253A18.27,18.27,0,0,0,1345.3,234.8ZM1325.6,312c.1.6.3,1.2.4,1.9.4,2.1,0,2.6-2.2,2.6h-20.6c-2.4,0-2.7-.4-2.3-2.8,2.3-11.3,4.5-22.6,6.8-33.8a16.2,16.2,0,1,1,11.2,0C1321.3,290.6,1323.5,301.3,1325.6,312Z"/><circle class="cls-6" cx="1234.2" cy="198.2" r="28.7"/><path class="cls-5" d="M1209.3,243.5a2.58,2.58,0,0,0-2.6,2.6v88.6a58.26,58.26,0,0,0,58.2,58.2h99.9a58.26,58.26,0,0,0,58.2-58.2V234.8a58.26,58.26,0,0,0-58.2-58.2h-79a2.58,2.58,0,0,0-2.6,2.6v5a2.58,2.58,0,0,0,2.6,2.6h79a48,48,0,0,1,47.9,47.9v99.9a48,48,0,0,1-47.9,47.9h-99.9a48,48,0,0,1-47.9-47.9V246a2.58,2.58,0,0,0-2.6-2.6h-5.1Z"/><path class="cls-5" d="M1396.5,245.7a44.64,44.64,0,0,0-44.6-44.6h-66.2a2.58,2.58,0,0,0-2.6,2.6v5a2.58,2.58,0,0,0,2.6,2.6h66.2a34.36,34.36,0,0,1,34.3,34.3V320a34.36,34.36,0,0,1-34.3,34.3h-74.3a34.36,34.36,0,0,1-34.3-34.3V246.2a2.58,2.58,0,0,0-2.6-2.6h-5a2.58,2.58,0,0,0-2.6,2.6V320a44.64,44.64,0,0,0,44.6,44.6H1352a44.64,44.64,0,0,0,44.6-44.6V245.7Z"/></svg>