<svg id="Layer_1" data-name="Layer 1" xmlns="http://www.w3.org/2000/svg" viewBox="0 0 1490 478"><defs><style>.cls-1{fill:#28d16c;}.cls-2{fill:#18ba60;}.cls-3,.cls-6{fill:#10a04a;}.cls-4{fill:#20c462;}.cls-5{fill:#fff;}.cls-6{stroke:#10a04a;stroke-miterlimit:10;stroke-width:9px;}</style></defs><title>Artboard 4</title><polygon class="cls-1" points="132.68 224.3 216.38 78.2 385.08 78.2 301.38 224.3 132.68 224.3"/><polygon class="cls-2" points="132.68 251.4 215.58 391.5 385.08 391.5 302.18 251.4 132.68 251.4"/><polygon class="cls-3" points="427.28 134 404.58 94.8 323.28 235.9 404.58 379.5 425.88 341.9 485.98 235.9 427.28 134"/><circle class="cls-4" cx="417.58" cy="430.3" r="24.1"/><circle class="cls-4" cx="78.22" cy="237.14" r="24.1" transform="translate(-163.6 299.41) rotate(-86.19)"/><circle class="cls-4" cx="423.78" cy="48" r="24.1"/><path class="cls-4" d="M304,446.8A211.48,211.48,0,0,1,97.88,282.9a2.26,2.26,0,1,1,4.4-1C124,376.3,207,442.3,304,442.3a206.79,206.79,0,0,0,62-9.5,2.18,2.18,0,0,1,2.8,1.5,2.25,2.25,0,0,1-1.5,2.8A209.09,209.09,0,0,1,304,446.8Z"/><path class="cls-4" d="M441.78,395a2.29,2.29,0,0,1-1.7-.8,2.33,2.33,0,0,1,.2-3.2,207.18,207.18,0,0,0,6-306.1,2.26,2.26,0,0,1,3.1-3.3,211.5,211.5,0,0,1-6.1,312.8A2,2,0,0,1,441.78,395Z"/><path class="cls-4" d="M100.08,190.2a.9.9,0,0,1-.5-.1,2.27,2.27,0,0,1-1.7-2.7,213,213,0,0,1,73.5-117.1A209.24,209.24,0,0,1,232.48,36a212.33,212.33,0,0,1,146,1.1,2.25,2.25,0,1,1-1.6,4.2A205.42,205.42,0,0,0,304,28.1c-97,0-180,65.9-201.7,160.3A2.24,2.24,0,0,1,100.08,190.2Z"/><path class="cls-5" d="M543.78,135.1h50.5l61.9,155.3,61.9-155.3h50.5L656.18,394.3Z"/><path class="cls-5" d="M656.18,400.1,540.28,132.8h55.6l60.3,151.3,60.3-151.3h55.6ZM547.38,137.4l108.9,251,108.9-251h-45.4l-63.6,159.2-63.4-159.2Z"/><path class="cls-5" d="M846.88,372h-.6c-10,13.4-28.2,21.9-48.3,21.9-48.3,0-76.2-39.5-76.2-77.4,0-36.1,30.1-77.4,77.7-77.4,21.9,0,38.6,9.4,46.8,21.9h.6V243.1h31.6v147h-31.6ZM802,364.1c24.9,0,46.2-21.3,46.2-47.7s-21.3-47.7-46.2-47.7c-25.5,0-46.8,21.3-46.8,47.7S776.48,364.1,802,364.1Z"/><path class="cls-5" d="M798,396.2c-29.3,0-47.7-13.7-57.9-25.3a82.94,82.94,0,0,1-20.6-54.5c0-38.5,32.2-79.8,80.1-79.8,18.6,0,35,6.7,45.1,18.1V240.6h36.2V392.2h-36.2V377.6C833.58,389.2,816.28,396.2,798,396.2Zm1.5-154.9c-45.1,0-75.4,38.8-75.4,75.1,0,36.9,27.6,75.1,73.9,75.1,19,0,36.7-8,46.4-20.9l.7-.9h4.1v17.9h27V245.3h-27v17.9H845l-.7-1C835.78,249.1,819,241.3,799.48,241.3ZM802,366.4c-27.1,0-49.1-22.4-49.1-50s22-50,49.1-50a47.83,47.83,0,0,1,34.1,14.6,50.71,50.71,0,0,1,0,70.8A47.83,47.83,0,0,1,802,366.4Zm0-95.3c-24.5,0-44.5,20.4-44.5,45.4s19.9,45.4,44.5,45.4c23.8,0,43.8-20.8,43.8-45.4S825.68,271.1,802,271.1Z"/><path class="cls-5" d="M910.78,328.6h-20.7V298.8h20.7V199.2h31.6v99.6h16.1l38.6-55.9h38.3l-49.8,69.2,52.2,77.7h-37.4l-38.8-61.2h-19.1v61.3h-31.6V328.6Z"/><path class="cls-5" d="M1042.08,392.3h-43L960.18,331h-15.5v61.3h-36.2V331h-20.6V296.6h20.7V197h36.2v99.6h12.6l38.5-56h44l-51.5,71.6Zm-40.4-4.7h31.7l-50.7-75.5,48.1-66.9h-32.5l-38.6,55.9h-19.6V201.5h-27v99.6h-20.7v25.1h20.7v61.4h27V326.3h22.7Z"/><path class="cls-5" d="M1156.78,372h-.6c-10,13.4-28.2,21.9-48.3,21.9-48.3,0-76.2-39.5-76.2-77.4,0-36.1,30.1-77.4,77.7-77.4,21.9,0,38.6,9.4,46.8,21.9h.6V243.1h31.6v147h-31.6Zm-44.9-7.9c24.9,0,46.2-21.3,46.2-47.7s-21.3-47.7-46.2-47.7c-25.5,0-46.8,21.3-46.8,47.7S1086.38,364.1,1111.88,364.1Z"/><path class="cls-5" d="M1107.88,396.2c-29.3,0-47.7-13.7-57.9-25.3a82.94,82.94,0,0,1-20.6-54.5c0-38.5,32.2-79.8,80.1-79.8,18.6,0,35,6.7,45.1,18.1V240.6h36.2V392.2h-36.2V377.6C1143.48,389.2,1126.18,396.2,1107.88,396.2Zm1.6-154.9c-45.1,0-75.4,38.8-75.4,75.1,0,36.9,27.6,75.1,73.9,75.1,19,0,36.7-8,46.4-20.9l.7-.9h4.1v17.9h27V245.3h-27v17.9H1155l-.7-1C1145.68,249.1,1128.88,241.3,1109.48,241.3Zm2.4,125.1c-27.1,0-49.1-22.4-49.1-50s22-50,49.1-50A47.83,47.83,0,0,1,1146,281a50.71,50.71,0,0,1,0,70.8A47.83,47.83,0,0,1,1111.88,366.4Zm0-95.3c-24.5,0-44.5,20.4-44.5,45.4s19.9,45.4,44.5,45.4c23.8,0,43.8-20.8,43.8-45.4S1135.68,271.1,1111.88,271.1Z"/><path class="cls-3" d="M1358.18,233.4h-61.1a18.27,18.27,0,0,0-18.2,18.2v59a18.27,18.27,0,0,0,18.2,18.2h61.1a18.27,18.27,0,0,0,18.2-18.2v-59A18.27,18.27,0,0,0,1358.18,233.4Zm-19.7,77.2c.1.6.3,1.2.4,1.9.4,2.1,0,2.6-2.2,2.6h-20.6c-2.4,0-2.7-.4-2.3-2.8,2.3-11.3,4.5-22.6,6.8-33.8a16.2,16.2,0,1,1,11.2,0C1334.18,289.2,1336.38,299.9,1338.48,310.6Z"/><circle class="cls-6" cx="1247.08" cy="196.8" r="28.7"/><path class="cls-5" d="M1222.18,242.1a2.58,2.58,0,0,0-2.6,2.6v88.6a58.26,58.26,0,0,0,58.2,58.2h99.9a58.26,58.26,0,0,0,58.2-58.2V233.4a58.26,58.26,0,0,0-58.2-58.2h-79a2.58,2.58,0,0,0-2.6,2.6v5a2.58,2.58,0,0,0,2.6,2.6h79a48,48,0,0,1,47.9,47.9v99.9a48,48,0,0,1-47.9,47.9h-99.9a48,48,0,0,1-47.9-47.9V244.6a2.58,2.58,0,0,0-2.6-2.6h-5.1Z"/><path class="cls-5" d="M1409.38,244.3a44.64,44.64,0,0,0-44.6-44.6h-66.2a2.58,2.58,0,0,0-2.6,2.6v5a2.58,2.58,0,0,0,2.6,2.6h66.2a34.36,34.36,0,0,1,34.3,34.3v74.4a34.36,34.36,0,0,1-34.3,34.3h-74.3a34.36,34.36,0,0,1-34.3-34.3V244.8a2.58,2.58,0,0,0-2.6-2.6h-5a2.58,2.58,0,0,0-2.6,2.6v73.8a44.64,44.64,0,0,0,44.6,44.6h74.3a44.64,44.64,0,0,0,44.6-44.6V244.3Z"/></svg>