<?xml version="1.0" encoding="utf-8"?>
<!-- Generator: Adobe Illustrator 22.1.0, SVG Export Plug-In . SVG Version: 6.00 Build 0)  -->
<svg version="1.1" id="Layer_1" xmlns="http://www.w3.org/2000/svg" xmlns:xlink="http://www.w3.org/1999/xlink" x="0px" y="0px"
	 viewBox="0 0 1826 560" style="enable-background:new 0 0 1826 560;" xml:space="preserve">
<style type="text/css">
	.st0{fill:#28D16C;}
	.st1{fill:#18BA60;}
	.st2{fill:#10A04A;}
	.st3{fill:#20C462;}
	.st4{fill:#2D2D2D;}
</style>
<g>
	<polygon class="st0" points="137.3,264 234.5,94.4 430.4,94.4 333.2,264 	"/>
	<polygon class="st1" points="137.3,295.5 233.6,458.2 430.4,458.2 334.1,295.5 	"/>
	<polygon class="st2" points="479.4,159.2 453.1,113.6 358.7,277.5 453.1,444.2 477.8,400.5 547.5,277.5 	"/>
	<ellipse class="st3" cx="468.2" cy="503.1" rx="28" ry="28"/>
	
		<ellipse transform="matrix(6.652039e-02 -0.9978 0.9978 6.652039e-02 -209.1919 334.2719)" class="st3" cx="74.1" cy="278.9" rx="28" ry="28"/>
	<circle class="st3" cx="475.3" cy="59.3" r="28"/>
	<g>
		<path class="st3" d="M336.2,522.4c-28.5,0-56.5-4.8-83.1-14.4c-25.7-9.2-49.6-22.7-70.9-39.9c-42.8-34.5-73.1-82.8-85.4-136
			c-0.3-1.4,0.6-2.8,2-3.2c1.4-0.3,2.8,0.6,3.2,2c25.2,109.7,121.6,186.2,234.2,186.2c24.4,0,48.7-3.7,72-11
			c1.4-0.4,2.9,0.3,3.3,1.7c0.4,1.4-0.3,2.9-1.7,3.3C385.9,518.6,361.2,522.4,336.2,522.4z"/>
	</g>
	<g>
		<path class="st3" d="M496.3,462.2c-0.7,0-1.5-0.3-2-0.9c-1-1.1-0.8-2.8,0.2-3.7c52.1-45.7,82-111.7,82-180.9
			c0-66.7-26.7-128.6-75.1-174.5c-1.1-1-1.1-2.7-0.1-3.7c1-1.1,2.7-1.1,3.7-0.1c24,22.7,42.8,49.5,56.1,79.6
			c13.7,31.2,20.6,64.4,20.6,98.7c0,36-7.6,70.7-22.6,103.1c-14.5,31.3-35.1,58.8-61.2,81.7C497.5,462,496.9,462.2,496.3,462.2z"/>
	</g>
	<g>
		<path class="st3" d="M99.5,224.4c-0.2,0-0.4,0-0.6-0.1c-1.4-0.3-2.3-1.7-2-3.2c12.3-53.2,42.6-101.5,85.4-135.9
			c21.4-17.2,45.2-30.6,70.9-39.8c26.6-9.5,54.5-14.4,83-14.4c29.8,0,58.9,5.3,86.5,15.7c1.4,0.5,2,2,1.5,3.4c-0.5,1.4-2,2-3.4,1.5
			c-27-10.2-55.5-15.3-84.7-15.3c-112.6,0-208.9,76.5-234.2,186.1C101.8,223.6,100.7,224.4,99.5,224.4z"/>
	</g>
</g>
<g>
	<g>
		<path class="st4" d="M621.3,150h55.5l67.9,170.4L812.6,150h55.5L744.7,434.5L621.3,150z"/>
		<path class="st4" d="M954,410.1h-0.7c-11,14.7-31,24-53,24c-53,0-83.7-43.3-83.7-85c0-39.7,33-85,85.4-85c24,0,42.3,10.3,51.3,24
			h0.7v-19.7h34.7v161.4H954V410.1z M904.6,401.4c27.3,0,50.7-23.3,50.7-52.3s-23.3-52.3-50.7-52.3c-28,0-51.3,23.3-51.3,52.3
			S876.6,401.4,904.6,401.4z"/>
		<path class="st4" d="M1024.2,362.4h-22.7v-32.7h22.7V220.4h34.7v109.4h17.7l42.3-61.3h42l-54.7,76l57.3,85.4h-41l-42.7-67.4h-21
			v67.4h-34.7V362.4z"/>
		<path class="st4" d="M1294.2,410.1h-0.7c-11,14.7-31,24-53,24c-53,0-83.7-43.3-83.7-85c0-39.7,33-85,85.4-85
			c24,0,42.3,10.3,51.3,24h0.7v-19.7h34.7v161.4h-34.7V410.1z M1244.9,401.4c27.3,0,50.7-23.3,50.7-52.3s-23.3-52.3-50.7-52.3
			c-28,0-51.3,23.3-51.3,52.3S1216.9,401.4,1244.9,401.4z"/>
	</g>
	<path class="st4" d="M1661.5,276.4c0-6.8-5.5-12.3-12.3-12.3h-280.9c-6.8,0-12.3,5.5-12.3,12.3v13.7l305.6,0V276.4z"/>
	<g>
		<path class="st4" d="M1684.7,360.3h51.4c1.4,0,2.6-1.2,2.6-2.6v-3.5c0-1.4-1.2-2.6-2.6-2.6h-51.4c-1.4,0-2.6,1.2-2.6,2.6v3.5
			C1682.1,359.2,1683.3,360.3,1684.7,360.3z"/>
		<path class="st4" d="M1684.7,414.3h51.4c1.4,0,2.6-1.2,2.6-2.6v-3.5c0-1.4-1.2-2.6-2.6-2.6h-51.4c-1.4,0-2.6,1.2-2.6,2.6v3.5
			C1682.1,413.1,1683.3,414.3,1684.7,414.3z"/>
		<path class="st4" d="M1684.7,386.6h80.3c1.4,0,2.6-1.2,2.6-2.6v-3.5c0-1.4-1.2-2.6-2.6-2.6h-80.3c-1.4,0-2.6,1.2-2.6,2.6v3.5
			C1682.1,385.5,1683.3,386.6,1684.7,386.6z"/>
	</g>
	<g>
		<path class="st2" d="M1515.5,362.2c-9.8,0-17,7.4-17,18.2c0,10.9,7.2,18.2,17,18.2c9.1,0,17.3-7.3,17.3-18.2
			C1532.7,369.7,1524.6,362.2,1515.5,362.2z"/>
		<path class="st2" d="M1355.9,300.8v64l34.3,0v-49.4h48.7c22.3,0,36.3,13.7,36.3,34.1c0,20.8-14.5,34.6-37.4,34.6h-23.3l0,30.3
			h-24.4v-31.5l-34.3,0v37.3c0,6.8,5.5,12.3,12.3,12.3h214.6l8.3-19.2l-29.2-68.2h24.1l16.7,41.1l17.8-41.1h24.1l-37.7,87.4h42.1
			c6.8,0,12.3-5.5,12.3-12.3V300.8L1355.9,300.8z M1555.2,415.7h-22.4l0-5.6c-5.5,4.9-12.8,7.7-21.9,7.7c-18.7,0-34.4-15-34.4-37.3
			c0-22.2,15.7-37.3,34.4-37.3c9.1,0,16.4,2.8,21.9,7.7l0-5.6h22.4L1555.2,415.7z"/>
		<path class="st2" d="M1436.1,363.7c9.5,0,15.2-5.5,15.2-13.9c0-8-5.8-13.6-15.2-13.6h-21.6l0,27.5H1436.1z"/>
	</g>
</g>
</svg>
