<?xml version="1.0" encoding="utf-8"?>
<!-- Generator: Adobe Illustrator 22.1.0, SVG Export Plug-In . SVG Version: 6.00 Build 0)  -->
<svg version="1.1" id="Layer_1" xmlns="http://www.w3.org/2000/svg" xmlns:xlink="http://www.w3.org/1999/xlink" x="0px" y="0px"
	 viewBox="0 0 800 800" style="enable-background:new 0 0 800 800;" xml:space="preserve">
<style type="text/css">
	.st0{fill:#3EB7BA;}
	.st1{fill:#FFFFFF;}
</style>
<title>mail</title>
<g id="Layer_1_1_">
	<circle class="st0" cx="400" cy="400" r="336.9"/>
	<path class="st0" d="M400,63.1v673.9c186.1,0,336.9-150.9,336.9-336.9S586.1,63.1,400,63.1z"/>
	<path class="st1" d="M547.4,539c7.7,0.1,15.3-2.7,21-7.9L466.7,429.3l-7,5.1c-7.6,5.6-13.8,10-18.5,13.1c-6,3.8-12.3,7-18.9,9.6
		c-7.9,3.3-15.2,4.9-22,4.9h-0.4c-6.8,0-14.2-1.6-22-4.9c-6.6-2.6-12.9-5.8-18.9-9.6c-4.7-3.1-10.9-7.5-18.5-13.1
		c-2.1-1.5-4.5-3.3-7-5.1L231.6,531c5.7,5.2,13.3,8,21,7.9L547.4,539z"/>
	<path class="st1" d="M244.9,365.3c-7.5-4.9-14.3-10.8-20.2-17.4v154.8l89.6-89.6C296.4,400.4,273.2,384.5,244.9,365.3z"/>
	<path class="st1" d="M555.3,365.3c-27.3,18.5-50.5,34.4-69.6,47.7l89.6,89.6V347.9C569.4,354.4,562.7,360.3,555.3,365.3z"/>
	<path class="st1" d="M547.4,261H252.6c-10.3,0-18.2,3.5-23.7,10.4c-5.5,6.9-8.3,15.6-8.3,26c0,8.4,3.7,17.5,11,27.3
		c7.3,9.8,15.2,17.5,23.5,23.2c4.5,3.2,18.2,12.7,41.1,28.5c12.3,8.5,23,16,32.3,22.4c7.9,5.5,14.6,10.2,20.2,14.1l3,2.1l5.5,4
		c4.3,3.1,7.9,5.7,10.8,7.6c2.9,1.9,6.3,4.1,10.4,6.5c3.6,2.2,7.5,4,11.5,5.4c3.2,1.1,6.6,1.7,10,1.8h0.4c3.4-0.1,6.8-0.7,10-1.8
		c4-1.4,7.9-3.2,11.5-5.4c4.1-2.4,7.5-4.6,10.4-6.5s6.5-4.5,10.8-7.6c2.3-1.6,4.1-3,5.5-4l3-2.1l20.2-14.1
		c16.6-11.5,41.1-28.5,73.5-51c9.6-6.6,17.9-15,24.4-24.6c6.5-9.6,9.8-19.7,9.8-30.3c-0.2-17.6-14.4-31.8-32-32L547.4,261z"/>
</g>
</svg>
