<?xml version="1.0" encoding="utf-8"?>
<!-- Generator: Adobe Illustrator 22.1.0, SVG Export Plug-In . SVG Version: 6.00 Build 0)  -->
<svg version="1.1" id="Layer_1" xmlns="http://www.w3.org/2000/svg" xmlns:xlink="http://www.w3.org/1999/xlink" x="0px" y="0px"
	 viewBox="0 0 1490 478" style="enable-background:new 0 0 1490 478;" xml:space="preserve">
<style type="text/css">
	.st0{fill:#3EB7BA;}
	.st1{fill:#2D2D2D;}
	.st2{fill:#3EB7BA;stroke:#3EB7BA;stroke-width:9;stroke-miterlimit:10;}
</style>
<title>Artboard 3</title>
<polygon class="st0" points="119.8,225.7 203.5,79.6 372.2,79.6 288.5,225.7 "/>
<polygon class="st0" points="119.8,252.8 202.7,392.9 372.2,392.9 289.3,252.8 "/>
<polygon class="st0" points="414.4,135.4 391.7,96.2 310.4,237.3 391.7,380.9 413,343.3 473.1,237.3 "/>
<circle class="st0" cx="404.7" cy="431.7" r="24.1"/>
<circle class="st0" cx="65.3" cy="238.5" r="24.1"/>
<circle class="st0" cx="410.9" cy="49.4" r="24.1"/>
<path class="st0" d="M291.1,448.2c-98.5,0-183.9-67.9-206.1-163.9c-0.3-1.2,0.3-2.5,1.5-2.8c1.2-0.3,2.5,0.3,2.8,1.5
	c0,0.1,0,0.2,0.1,0.3c21.7,94.4,104.7,160.4,201.7,160.4c21,0,41.9-3.2,62-9.5c1.1-0.4,2.4,0.2,2.8,1.4c0,0,0,0.1,0,0.1
	c0.4,1.2-0.3,2.4-1.5,2.8C333.9,445,312.6,448.2,291.1,448.2z"/>
<path class="st0" d="M428.9,396.4c-0.7,0-1.3-0.3-1.7-0.8c-0.8-1-0.7-2.4,0.2-3.2c86-75.4,94.6-206.3,19.2-292.4
	c-4.2-4.8-8.6-9.4-13.2-13.7c-0.9-0.9-1-2.3-0.1-3.2s2.3-1,3.2-0.1l0,0c84.8,80.3,88.5,214.1,8.3,299c-4.6,4.8-9.4,9.4-14.4,13.8
	C430,396.2,429.5,396.4,428.9,396.4z"/>
<path class="st0" d="M87.2,191.6c-0.2,0-0.3,0-0.5-0.1c-1.2-0.3-2-1.5-1.7-2.7c10.8-46.1,36.7-87.3,73.5-117.1
	c18.3-14.8,39-26.4,61.1-34.3c47.3-16.9,99-16.5,146,1.1c1.2,0.4,1.8,1.7,1.4,2.8c-0.4,1.2-1.7,1.8-2.8,1.4c-0.1,0-0.1,0-0.2-0.1
	c-23.3-8.8-48-13.3-72.9-13.2c-97,0-180,65.9-201.7,160.3C89.2,190.8,88.3,191.6,87.2,191.6z"/>
<path class="st1" d="M530.9,136.5h50.5l61.9,155.3l61.9-155.3h50.5L643.3,395.7L530.9,136.5z"/>
<path class="st1" d="M643.3,401.5L527.4,134.2H583l60.3,151.3l60.3-151.3h55.6L643.3,401.5z M534.5,138.8l108.9,251l108.9-251h-45.4
	L643.3,298l-63.4-159.2H534.5z"/>
<path class="st1" d="M834,373.4h-0.6c-10,13.4-28.2,21.9-48.3,21.9c-48.3,0-76.2-39.5-76.2-77.4c0-36.1,30.1-77.4,77.7-77.4
	c21.9,0,38.6,9.4,46.8,21.9h0.6v-17.9h31.6v147H834V373.4z M789.1,365.5c24.9,0,46.2-21.3,46.2-47.7s-21.3-47.7-46.2-47.7
	c-25.5,0-46.8,21.3-46.8,47.7S763.6,365.5,789.1,365.5z"/>
<path class="st1" d="M785.1,397.6c-29.3,0-47.7-13.7-57.9-25.3c-13.2-15.1-20.6-34.4-20.6-54.5c0-38.5,32.2-79.8,80.1-79.8
	c18.6,0,35,6.7,45.1,18.1V242H868v151.6h-36.2V379C820.7,390.6,803.4,397.6,785.1,397.6z M786.6,242.7c-45.1,0-75.4,38.8-75.4,75.1
	c0,36.9,27.6,75.1,73.9,75.1c19,0,36.7-8,46.4-20.9l0.7-0.9h4.1V389h27V246.7h-27v17.9h-4.2l-0.7-1
	C822.9,250.5,806.1,242.7,786.6,242.7L786.6,242.7z M789.1,367.8c-27.1,0-49.1-22.4-49.1-50s22-50,49.1-50
	c12.9,0.1,25.2,5.3,34.1,14.6c19.2,19.7,19.2,51.1,0,70.8C814.3,362.5,802,367.7,789.1,367.8L789.1,367.8z M789.1,272.5
	c-24.5,0-44.5,20.4-44.5,45.4s19.9,45.4,44.5,45.4c23.8,0,43.8-20.8,43.8-45.4S812.8,272.5,789.1,272.5z"/>
<path class="st1" d="M897.9,330h-20.7v-29.8h20.7v-99.6h31.6v99.6h16.1l38.6-55.9h38.3l-49.8,69.2l52.2,77.7h-37.4L948.7,330h-19.1
	v61.3H898L897.9,330L897.9,330z"/>
<path class="st1" d="M1029.2,393.7h-43l-38.9-61.3h-15.5v61.3h-36.2v-61.3H875V298h20.7v-99.6h36.2V298h12.6l38.5-56h44l-51.5,71.6
	L1029.2,393.7z M988.8,389h31.7l-50.7-75.5l48.1-66.9h-32.5l-38.6,55.9h-19.6v-99.6h-27v99.6h-20.7v25.1h20.7V389h27v-61.3h22.7
	L988.8,389z"/>
<path class="st1" d="M1143.9,373.4h-0.6c-10,13.4-28.2,21.9-48.3,21.9c-48.3,0-76.2-39.5-76.2-77.4c0-36.1,30.1-77.4,77.7-77.4
	c21.9,0,38.6,9.4,46.8,21.9h0.6v-17.9h31.6v147h-31.6V373.4z M1099,365.5c24.9,0,46.2-21.3,46.2-47.7s-21.3-47.7-46.2-47.7
	c-25.5,0-46.8,21.3-46.8,47.7S1073.5,365.5,1099,365.5z"/>
<path class="st1" d="M1095,397.6c-29.3,0-47.7-13.7-57.9-25.3c-13.2-15.1-20.6-34.4-20.6-54.5c0-38.5,32.2-79.8,80.1-79.8
	c18.6,0,35,6.7,45.1,18.1V242h36.2v151.6h-36.2V379C1130.6,390.6,1113.3,397.6,1095,397.6z M1096.6,242.7
	c-45.1,0-75.4,38.8-75.4,75.1c0,36.9,27.6,75.1,73.9,75.1c19,0,36.7-8,46.4-20.9l0.7-0.9h4.1V389h27V246.7h-27v17.9h-4.2l-0.7-1
	C1132.8,250.5,1116,242.7,1096.6,242.7L1096.6,242.7z M1099,367.8c-27.1,0-49.1-22.4-49.1-50s22-50,49.1-50
	c12.9,0.1,25.2,5.3,34.1,14.6c19.2,19.7,19.2,51.1,0,70.8C1124.2,362.5,1111.9,367.7,1099,367.8L1099,367.8z M1099,272.5
	c-24.5,0-44.5,20.4-44.5,45.4s19.9,45.4,44.5,45.4c23.8,0,43.8-20.8,43.8-45.4S1122.8,272.5,1099,272.5z"/>
<path class="st0" d="M1345.3,234.8h-61.1c-10,0-18.2,8.2-18.2,18.2v59c0,10,8.2,18.2,18.2,18.2h61.1c10,0,18.2-8.2,18.2-18.2v-59
	C1363.5,243,1355.3,234.8,1345.3,234.8z M1325.6,312c0.1,0.6,0.3,1.2,0.4,1.9c0.4,2.1,0,2.6-2.2,2.6h-20.6c-2.4,0-2.7-0.4-2.3-2.8
	c2.3-11.3,4.5-22.6,6.8-33.8c-8.4-3.1-12.7-12.4-9.6-20.8c3.1-8.4,12.4-12.7,20.8-9.6c8.4,3.1,12.7,12.4,9.6,20.8
	c-1.6,4.5-5.1,8-9.6,9.6C1321.3,290.6,1323.5,301.3,1325.6,312z"/>
<circle class="st2" cx="1234.2" cy="198.2" r="28.7"/>
<path class="st1" d="M1209.3,243.5c-1.4,0-2.6,1.1-2.6,2.6c0,0,0,0,0,0v88.6c0,32.1,26.1,58.2,58.2,58.2h99.9
	c32.1,0,58.2-26.1,58.2-58.2v-99.9c0-32.1-26.1-58.2-58.2-58.2h-79c-1.4,0-2.6,1.1-2.6,2.6c0,0,0,0,0,0v5c0,1.4,1.1,2.6,2.6,2.6
	c0,0,0,0,0,0h79c26.4,0.1,47.8,21.5,47.9,47.9v99.9c-0.1,26.4-21.5,47.8-47.9,47.9h-99.9c-26.4-0.1-47.8-21.5-47.9-47.9V246
	c0-1.4-1.1-2.6-2.6-2.6c0,0,0,0,0,0h-5.1V243.5z"/>
<path class="st1" d="M1396.5,245.7c0-24.6-20-44.6-44.6-44.6h-66.2c-1.4,0-2.6,1.1-2.6,2.6c0,0,0,0,0,0v5c0,1.4,1.1,2.6,2.6,2.6
	c0,0,0,0,0,0h66.2c18.9,0,34.3,15.4,34.3,34.3V320c0,18.9-15.4,34.3-34.3,34.3h-74.3c-18.9,0-34.3-15.4-34.3-34.3v-73.8
	c0-1.4-1.1-2.6-2.6-2.6c0,0,0,0,0,0h-5c-1.4,0-2.6,1.1-2.6,2.6c0,0,0,0,0,0V320c0,24.6,20,44.6,44.6,44.6h74.3
	c24.6,0,44.6-20,44.6-44.6L1396.5,245.7L1396.5,245.7z"/>
</svg>
