<svg xmlns="http://www.w3.org/2000/svg" viewBox="0 0 800 800"><defs><style>.cls-1{fill:#56d097;}.cls-2{fill:#10a04a;}.cls-3{fill:#fff;}</style></defs><title>mail</title><g id="Layer_1" data-name="Layer 1"><circle class="cls-1" cx="400" cy="400" r="336.94" transform="translate(-165.69 400) rotate(-45)"/><path class="cls-2" d="M400,63.06V736.94c186.08,0,336.94-150.85,336.94-336.94S586.08,63.06,400,63.06Z"/><path class="cls-3" d="M547.44,539a30.66,30.66,0,0,0,21-7.92L466.74,429.33l-7,5.06q-11.42,8.42-18.54,13.12a114.35,114.35,0,0,1-18.92,9.62q-11.83,4.9-22,4.9h-.4q-10.23,0-22-4.9a114.1,114.1,0,0,1-18.93-9.62q-7.11-4.71-18.53-13.12c-2.12-1.55-4.48-3.26-7-5.09L231.55,531a30.7,30.7,0,0,0,21,7.92Z"/><path class="cls-3" d="M244.88,365.28a106.09,106.09,0,0,1-20.24-17.43V502.6L314.28,413Q287.39,394.17,244.88,365.28Z"/><path class="cls-3" d="M555.33,365.28Q514.4,393,485.75,413l89.61,89.61V347.85A110.5,110.5,0,0,1,555.33,365.28Z"/><path class="cls-3" d="M547.44,261H252.56q-15.44,0-23.74,10.41t-8.31,26.05q0,12.62,11,27.34T255,348q6.81,4.8,41.07,28.54c12.33,8.55,23.05,16,32.27,22.42,7.85,5.47,14.62,10.21,20.22,14.15l3,2.12,5.52,4q6.51,4.69,10.82,7.61t10.42,6.51a60.61,60.61,0,0,0,11.52,5.41,31.87,31.87,0,0,0,10,1.8h.4a31.88,31.88,0,0,0,10-1.8,60.89,60.89,0,0,0,11.52-5.41q6.11-3.6,10.42-6.51T443,419.2c2.26-1.63,4.08-2.95,5.53-4l3-2.13L471.76,399q24.92-17.31,73.48-51a95.24,95.24,0,0,0,24.44-24.64q9.81-14.41,9.81-30.25a32.3,32.3,0,0,0-32-32Z"/></g></svg>