<?xml version="1.0" encoding="utf-8"?>
<!-- Generator: Adobe Illustrator 22.0.0, SVG Export Plug-In . SVG Version: 6.00 Build 0)  -->
<svg version="1.1" id="Layer_1" xmlns="http://www.w3.org/2000/svg" xmlns:xlink="http://www.w3.org/1999/xlink" x="0px" y="0px"
	 viewBox="0 0 500 500" style="enable-background:new 0 0 500 500;" xml:space="preserve">
<style type="text/css">
	.st0{fill-rule:evenodd;clip-rule:evenodd;fill:#10A04A;}
	.st1{fill-rule:evenodd;clip-rule:evenodd;fill:#FEFEFE;}
</style>
<g>
	
		<ellipse transform="matrix(0.7071 -0.7071 0.7071 0.7071 -103.5536 250.0004)" class="st0" cx="250" cy="250" rx="220.4" ry="220.4"/>
	<g>
		<path class="st1" d="M250,337.8c-38.5,0-76.9,0-115.4,0c-10.3,0-17.2-7-17.2-17.3c0-34.8,0-69.6,0-104.4c0-8.9,0.6-9.3,8.3-5.1
			c36.1,19.3,72.2,38.5,108.2,57.9c10.8,5.8,21.2,5.9,32.1,0c35.9-19.3,71.8-38.4,107.8-57.6c1.2-0.6,2.3-1.3,3.5-1.8
			c3.8-1.7,5.2-0.9,5.2,3.1c0,36.8,0.1,73.7,0,110.5c0,7.7-8,14.7-16.2,14.7C327.5,337.8,288.8,337.8,250,337.8z"/>
		<path class="st1" d="M250,163.1c40.9,0,81.9,0,122.8,0c3.3,0,7.3-0.7,8.8,3.2c1.5,3.9-1.1,6.9-3.5,9.7c-1.7,1.9-3.8,3.2-6,4.4
			c-35.6,19.5-71.2,39.1-106.8,58.6c-10.1,5.6-20.4,5.6-30.5,0c-35.6-19.5-71.2-39.1-106.8-58.6c-4-2.2-7.3-4.9-9.2-9
			c-2.1-4.6-0.2-7.8,4.9-8.3c1.4-0.1,2.9-0.1,4.4-0.1C168.7,163.1,209.3,163.1,250,163.1z"/>
	</g>
</g>
</svg>
